 http://img811.imageshack.us/img811/4236/61115221.jpg

Country.......: Canada
Genre.........: Sci-Fi, Thriller
Date release..: 2010 [World]
Director......: Brenton Spencer
Writers.......: Ruth Fletcher, Christos N. Gage
Duration......: 86 min.
More..........: http://www.imdb.com/title/tt1343740
Trailer.......:

Pilot :
Homicide detective Sean Nault, a cop on a parallel Earth whose technology is powered exclusively by magic. Sean investigates a baffling series of murders committed by a means he's never seen before: science. With the aid of Lenoir, a member of the ridiculed subculture of "pragmatists" who believe science is more than the stuff of myths & children's stories, and the 130-year-old sorcerer Winston Churchill, Sean uncovers an ominous plot that will lead him to another dimension and the realization that, unless he prevents it, both earths could well be destroyed.

Cats :
Kevin Sorbo   	 ...  	Det. Sean Nault
Steph Song 	... 	Lenore
Christopher Judge 	... 	Captain Papillo
Alan C. Peterson 	... 	Winston Churchill
Alisen Down 	... 	Helen
Jerry Wasserman 	... 	Hillman
Michael St. John Smith 	... 	Senator Booth
David Richmond Peck 	... 	Andrew Ebetts
Vladimir Moskovchenko 	... 	Armand Beaufort
Kanji Nimet 	... 	Doctor
Keith Dallas 	... 	Pawnbroker
Adrian Holmes 	... 	Detective Chris Sharpe
Jeny Cassady 	... 	Werewolf Perpetrator
Sean Tyson 	... 	Cop#1
Gerry Durand 	... 	Zombie #1

Data Technical :
!!! SAMPLE !!!
Audio.....: English
Subtitles.: None
Format                           : AVI
Format/Info                      : Audio Video Interleave
File size                        : 1.36 GiB
Duration                         : 1h 26mn
Overall bit rate                 : 2 262 Kbps
Writing application              : Nandub v1.0rc2
Writing library                  : Nandub build 1853/release
Video
ID                               : 0
Format                           : MPEG-4 Visual
Format profile                   : Advanced Simple@L5
Format settings, BVOP            : Yes
Format settings, QPel            : Yes
Format settings, GMC             : No warppoints
Format settings, Matrix          : Default (H.263)
Muxing mode                      : Packed bitstream
Codec ID                         : XVID
Codec ID/Hint                    : XviD
Duration                         : 1h 26mn
Bit rate                         : 1 804 Kbps
Width                            : 720 pixels
Height                           : 400 pixels
Display aspect ratio             : 16:9
Frame rate                       : 23.976 fps
Color space                      : YUV
Chroma subsampling               : 4:2:0
Bit depth                        : 8 bits
Scan type                        : Progressive
Bits/(Pixel*Frame)               : 0.261
Stream size                      : 1.08 GiB (80%)
Writing library                  : XviD 1.2.1 (UTC 2008-12-04)
Audio
ID                               : 1
Format                           : AC-3
Format/Info                      : Audio Coding 3
Mode extension                   : CM (complete main)
Codec ID                         : 2000
Duration                         : 1h 26mn
Bit rate mode                    : Constant
Bit rate                         : 448 Kbps
Channel(s)                       : 6 channels
Channel positions                : Front: L C R, Side: L R, LFE
Sampling rate                    : 48.0 KHz
Bit depth                        : 16 bits
Stream size                      : 276 MiB (20%)
Alignment                        : Split accross interleaves
Interleave, duration             : 42 ms (1.00 video frame)
Interleave, preload duration     : 500 ms

Screen : 
http://img101.imageshack.us/img101/2201/paradox2010s1.jpg 
http://img803.imageshack.us/img803/3788/paradox2010s2.jpg 
http://img834.imageshack.us/img834/443/paradox2010s3.jpg 
http://img718.imageshack.us/img718/3923/paradox2010s4.jpg 
http://img836.imageshack.us/img836/6581/paradox2010s5.jpg